:FULLY-SPECIFIED
:FORCE-ALL-JOINTS-BE-3DOF
:DEGREES
33
root 7.98788 15.7203 -32.1549 7.61394 -8.08618 -7.09248
lfemur -41.344 5.47331 -9.21361
ltibia 24.5256 0 0
lfoot -8.60211 11.4408 0
ltoes -11.4644 0 0
rfemur 19.2487 6.88639 30.3979
rtibia 9.54168e-15 0 0
rfoot -11.934 -0.729153 0
rtoes -22.7008 0 0
lowerback -8.32426 1.50741 3.60518
upperback -0.996569 1.53036 3.61757
thorax 3.63315 0.784307 1.90132
lowerneck -20.7239 -4.5438 -11.697
upperneck 16.256 -5.82034 14.5881
head 9.34279 -1.92001 6.23714
lclavicle -1.38673e-14 -5.43344e-15 0
lhumerus -43.2241 -8.22033 91.2039
lradius 26.0329 0 0
lwrist 3.18556 0 0
lhand -9.91708 -23.7713 0
lfingers 7.12502 0 0
lthumb 16.0634 5.58189 0
rclavicle -1.38673e-14 -5.43344e-15 0
rhumerus -44.1325 20.6858 -92.9961
rradius 60.4633 0 0
rwrist -29.771 0 0
rhand -30.3831 -30.8564 0
rfingers 7.12502 0 0
rthumb -3.68737 -60.8041 0
34
root 8.01686 15.7097 -31.9878 7.64675 -8.17637 -7.06367
lfemur -41.702 6.00475 -9.61486
ltibia 25.7511 0 0
lfoot -6.77337 10.9343 0
ltoes -10.334 0 0
rfemur 19.8381 6.79228 30.1379
rtibia 6.36113e-15 0 0
rfoot -11.0347 -0.812677 0
rtoes -16.1211 0 0
lowerback -8.44748 1.46264 3.44024
upperback -0.982978 1.47408 3.70746
thorax 3.7102 0.753817 2.08517
lowerneck -20.8337 -4.54617 -11.6535
upperneck 16.2202 -5.7966 14.4745
head 9.34084 -1.91414 6.19018
lclavicle -1.22718e-14 -9.54165e-15 0
lhumerus -43.4168 -8.2096 91.4217
lradius 25.8702 0 0
lwrist 3.01135 0 0
lhand -9.69673 -23.3377 0
lfingers 7.12502 0 0
lthumb 16.2756 5.99808 0
rclavicle -1.22718e-14 -9.54165e-15 0
rhumerus -44.2747 20.7523 -93.1206
rradius 60.0585 0 0
rwrist -29.511 0 0
rhand -30.2961 -30.6713 0
rfingers 7.12502 0 0
rthumb -3.60338 -60.6205 0
35
root 8.04585 15.6991 -31.8208 7.67957 -8.26655 -7.03485
lfemur -42.0601 6.53619 -10.0161
ltibia 26.9766 0 0
lfoot -4.94462 10.4279 0
ltoes -9.20355 0 0
rfemur 20.4274 6.69818 29.8779
rtibia 3.18057e-15 0 0
rfoot -10.1355 -0.896202 0
rtoes -9.54132 0 0
lowerback -8.57069 1.41786 3.27529
upperback -0.969388 1.41779 3.79735
thorax 3.78725 0.723326 2.26902
lowerneck -20.9435 -4.54855 -11.6101
upperneck 16.1843 -5.77286 14.3608
head 9.33889 -1.90827 6.14322
lclavicle -1.06764e-14 -1.36499e-14 0
lhumerus -43.6096 -8.19887 91.6395
lradius 25.7075 0 0
lwrist 2.83713 0 0
lhand -9.47637 -22.9041 0
lfingers 7.12502 0 0
lthumb 16.4878 6.41428 0
rclavicle -1.06764e-14 -1.36499e-14 0
rhumerus -44.4169 20.8189 -93.245
rradius 59.6537 0 0
rwrist -29.251 0 0
rhand -30.2091 -30.4862 0
rfingers 7.12502 0 0
rthumb -3.51939 -60.4368 0
36
root 8.07483 15.6885 -31.6538 7.71238 -8.35674 -7.00603
lfemur -42.4182 7.06764 -10.4174
ltibia 28.2021 0 0
lfoot -3.11587 9.92149 0
ltoes -8.07313 0 0
rfemur 21.0168 6.60407 29.6178
rtibia 8.33333e-21 0 0
rfoot -9.23623 -0.979726 0
rtoes -2.96157 0 0
lowerback -8.69391 1.37309 3.11034
upperback -0.955797 1.36151 3.88725
thorax 3.8643 0.692836 2.45287
lowerneck -21.0532 -4.55093 -11.5666
upperneck 16.1485 -5.74912 14.2471
head 9.33694 -1.9024 6.09626
lclavicle -9.08094e-15 -1.77581e-14 0
lhumerus -43.8023 -8.18813 91.8572
lradius 25.5447 0 0
lwrist 2.66291 0 0
lhand -9.25601 -22.4706 0
lfingers 7.12502 0 0
lthumb 16.6999 6.83047 0
rclavicle -9.08094e-15 -1.77581e-14 0
rhumerus -44.5591 20.8854 -93.3695
rradius 59.2489 0 0
rwrist -28.9911 0 0
rhand -30.1222 -30.3011 0
rfingers 7.12502 0 0
rthumb -3.43541 -60.2531 0
37
root 8.10381 15.6779 -31.4868 7.7452 -8.44692 -6.97722
lfemur -42.7763 7.59908 -10.8186
ltibia 29.4276 0 0
lfoot -1.28713 9.41507 0
ltoes -6.94272 0 0
rfemur 21.6062 6.50996 29.3578
rtibia -3.18055e-15 0 0
rfoot -8.33698 -1.06325 0
rtoes 3.61817 0 0
lowerback -8.81713 1.32831 2.94539
upperback -0.942207 1.30523 3.97714
thorax 3.94135 0.662346 2.63672
lowerneck -21.163 -4.55331 -11.5231
upperneck 16.1126 -5.72538 14.1334
head 9.33499 -1.89653 6.0493
lclavicle -7.48549e-15 -2.18663e-14 0
lhumerus -43.995 -8.1774 92.075
lradius 25.382 0 0
lwrist 2.4887 0 0
lhand -9.03565 -22.037 0
lfingers 7.12502 0 0
lthumb 16.9121 7.24666 0
rclavicle -7.48549e-15 -2.18663e-14 0
rhumerus -44.7013 20.9519 -93.4939
rradius 58.8441 0 0
rwrist -28.7311 0 0
rhand -30.0352 -30.116 0
rfingers 7.12502 0 0
rthumb -3.35142 -60.0694 0
38
root 8.1417 15.6732 -31.3173 7.7298 -8.53496 -6.8834
lfemur -42.9469 7.86959 -11.2408
ltibia 30.6578 0 0
lfoot -0.980502 8.94652 0
ltoes -6.15664 0 0
rfemur 22.1454 6.41102 29.0323
rtibia 7.95139e-15 0 0
rfoot -7.24929 -0.738299 0
rtoes -2.72916 0 0
lowerback -8.7758 1.29492 2.88122
upperback -1.00317 1.2716 3.9879
thorax 3.85414 0.644495 2.67749
lowerneck -21.1791 -4.56049 -11.6731
upperneck 16.1032 -5.70438 14.2189
head 9.33909 -1.88709 6.10998
lclavicle -6.41676e-15 -1.4445e-14 0
lhumerus -44.0733 -7.89134 91.9738
lradius 24.9844 0 0
lwrist 1.90851 0 0
lhand -6.42664 -21.2213 0
lfingers 7.12502 0 0
lthumb 19.4122 7.71903 0
rclavicle -6.41676e-15 -1.4445e-14 0
rhumerus -44.9262 20.8034 -93.6223
rradius 58.2548 0 0
rwrist -28.4815 0 0
rhand -30.3611 -30.769 0
rfingers 7.12502 0 0
rthumb -3.66616 -60.716 0
39
root 8.17958 15.6686 -31.1477 7.7144 -8.62299 -6.78957
lfemur -43.1174 8.14009 -11.6629
ltibia 31.8879 0 0
lfoot -0.673873 8.47796 0
ltoes -5.37057 0 0
rfemur 22.6845 6.31207 28.7067
rtibia 1.90833e-14 0 0
rfoot -6.16159 -0.413348 0
rtoes -9.07649 0 0
lowerback -8.73446 1.26153 2.81704
upperback -1.06414 1.23798 3.99865
thorax 3.76693 0.626645 2.71826
lowerneck -21.1952 -4.56768 -11.8231
upperneck 16.0938 -5.68337 14.3044
head 9.34319 -1.87766 6.17066
lclavicle -5.34804e-15 -7.0237e-15 0
lhumerus -44.1515 -7.60528 91.8726
lradius 24.5867 0 0
lwrist 1.32831 0 0
lhand -3.81764 -20.4055 0
lfingers 7.12502 0 0
lthumb 21.9122 8.19141 0
rclavicle -5.34804e-15 -7.0237e-15 0
rhumerus -45.1512 20.6549 -93.7508
rradius 57.6655 0 0
rwrist -28.2319 0 0
rhand -30.6871 -31.422 0
rfingers 7.12502 0 0
rthumb -3.98091 -61.3627 0
40
root 8.21747 15.6639 -30.9782 7.699 -8.71103 -6.69575
lfemur -43.2879 8.4106 -12.0851
ltibia 33.1181 0 0
lfoot -0.367245 8.00941 0
ltoes -4.58449 0 0
rfemur 23.2236 6.21312 28.3811
rtibia 3.02153e-14 0 0
rfoot -5.0739 -0.0883975 0
rtoes -15.4238 0 0
lowerback -8.69313 1.22814 2.75287
upperback -1.12511 1.20435 4.00941
thorax 3.67971 0.608795 2.75903
lowerneck -21.2113 -4.57486 -11.9731
upperneck 16.0844 -5.66237 14.3899
head 9.34728 -1.86823 6.23133
lclavicle -4.27931e-15 3.976e-16 0
lhumerus -44.2297 -7.31921 91.7713
lradius 24.1891 0 0
lwrist 0.748121 0 0
lhand -1.20863 -19.5898 0
lfingers 7.12502 0 0
lthumb 24.4123 8.66378 0
rclavicle -4.27931e-15 3.976e-16 0
rhumerus -45.3761 20.5064 -93.8792
rradius 57.0762 0 0
rwrist -27.9823 0 0
rhand -31.013 -32.075 0
rfingers 7.12502 0 0
rthumb -4.29565 -62.0093 0
41
root 8.25536 15.6593 -30.8087 7.68361 -8.79907 -6.60192
lfemur -43.4585 8.68111 -12.5073
ltibia 34.3483 0 0
lfoot -0.0606167 7.54086 0
ltoes -3.79842 0 0
rfemur 23.7628 6.11418 28.0556
rtibia 4.13472e-14 0 0
rfoot -3.9862 0.236553 0
rtoes -21.7711 0 0
lowerback -8.6518 1.19475 2.6887
upperback -1.18608 1.17072 4.02017
thorax 3.5925 0.590944 2.79979
lowerneck -21.2274 -4.58204 -12.123
upperneck 16.075 -5.64136 14.4755
head 9.35138 -1.85879 6.29201
lclavicle -3.21058e-15 7.8189e-15 0
lhumerus -44.308 -7.03315 91.6701
lradius 23.7915 0 0
lwrist 0.167927 0 0
lhand 1.40038 -18.7741 0
lfingers 7.12502 0 0
lthumb 26.9123 9.13615 0
rclavicle -3.21058e-15 7.8189e-15 0
rhumerus -45.601 20.3579 -94.0076
rradius 56.4869 0 0
rwrist -27.7327 0 0
rhand -31.3389 -32.728 0
rfingers 7.12502 0 0
rthumb -4.61039 -62.6559 0
42
root 8.29324 15.6547 -30.6391 7.66821 -8.8871 -6.50809
lfemur -43.629 8.95161 -12.9294
ltibia 35.5784 0 0
lfoot 0.246012 7.0723 0
ltoes -3.01234 0 0
rfemur 24.302 6.01524 27.73
rtibia 5.24792e-14 0 0
rfoot -2.89851 0.561504 0
rtoes -28.1185 0 0
lowerback -8.61046 1.16136 2.62452
upperback -1.24704 1.1371 4.03092
thorax 3.50529 0.573094 2.84056
lowerneck -21.2435 -4.58923 -12.273
upperneck 16.0656 -5.62035 14.561
head 9.35548 -1.84936 6.35269
lclavicle -2.14186e-15 1.52402e-14 0
lhumerus -44.3862 -6.74709 91.5689
lradius 23.3938 0 0
lwrist -0.412266 0 0
lhand 4.00938 -17.9583 0
lfingers 7.12502 0 0
lthumb 29.4123 9.60853 0
rclavicle -2.14186e-15 1.52402e-14 0
rhumerus -45.826 20.2094 -94.1361
rradius 55.8976 0 0
rwrist -27.4831 0 0
rhand -31.6649 -33.381 0
rfingers 7.12502 0 0
rthumb -4.92514 -63.3026 0
43
root 8.33113 15.65 -30.4696 7.65281 -8.97514 -6.41427
lfemur -43.7996 9.22212 -13.3516
ltibia 36.8086 0 0
lfoot 0.55264 6.60375 0
ltoes -2.22627 0 0
rfemur 24.8411 5.91629 27.4045
rtibia 6.36111e-14 0 0
rfoot -1.81081 0.886455 0
rtoes -34.4658 0 0
lowerback -8.56913 1.12797 2.56035
upperback -1.30801 1.10347 4.04168
thorax 3.41808 0.555243 2.88133
lowerneck -21.2596 -4.59641 -12.423
upperneck 16.0562 -5.59935 14.6465
head 9.35958 -1.83992 6.41337
lclavicle -1.07313e-15 2.26615e-14 0
lhumerus -44.4645 -6.46103 91.4677
lradius 22.9962 0 0
lwrist -0.992459 0 0
lhand 6.61839 -17.1426 0
lfingers 7.12502 0 0
lthumb 31.9124 10.0809 0
rclavicle -1.07313e-15 2.26615e-14 0
rhumerus -46.0509 20.0609 -94.2645
rradius 55.3083 0 0
rwrist -27.2335 0 0
rhand -31.9908 -34.034 0
rfingers 7.12502 0 0
rthumb -5.23988 -63.9492 0
44
root 8.37495 15.6852 -30.3014 7.48866 -9.1749 -5.87604
lfemur -43.1026 9.08687 -14.0906
ltibia 37.0951 0 0
lfoot -0.225733 6.624 0
ltoes -2.19561 0 0
rfemur 23.4968 5.65564 26.3733
rtibia 3.25678 0 0
rfoot -0.944157 0.780326 0
rtoes -31.2478 0 0
lowerback -8.27015 1.04037 2.15226
upperback -1.4643 1.03933 3.9505
thorax 3.08797 0.523237 3.00135
lowerneck -21.2696 -4.53823 -12.5066
upperneck 16.2095 -5.49618 14.6035
head 9.39857 -1.80112 6.43344
lclavicle 5.24137e-16 2.00773e-14 0
lhumerus -44.577 -5.9115 91.2336
lradius 22.6828 0 0
lwrist -1.50786 0 0
lhand 6.18969 -17.0212 0
lfingers 7.12502 0 0
lthumb 31.5036 10.279 0
rclavicle 5.24137e-16 2.00773e-14 0
rhumerus -46.2302 20.0139 -94.3377
rradius 54.2978 0 0
rwrist -26.8681 0 0
rhand -31.7373 -33.1599 0
rfingers 7.12502 0 0
rthumb -4.99504 -63.0803 0
45
root 8.41876 15.7203 -30.1332 7.32452 -9.37466 -5.33781
lfemur -42.4056 8.95162 -14.8295
ltibia 37.3816 0 0
lfoot -1.00411 6.64426 0
ltoes -2.16496 0 0
rfemur 22.1525 5.39498 25.3421
rtibia 6.51357 0 0
rfoot -0.0775033 0.674197 0
rtoes -28.0298 0 0
lowerback -7.97117 0.952763 1.74417
upperback -1.6206 0.975199 3.85932
thorax 2.75786 0.491231 3.12136
lowerneck -21.2795 -4.48005 -12.5902
upperneck 16.3628 -5.393 14.5605
head 9.43756 -1.76232 6.45352
lclavicle 2.1214e-15 1.74931e-14 0
lhumerus -44.6896 -5.36197 90.9994
lradius 22.3693 0 0
lwrist -2.02326 0 0
lhand 5.76099 -16.8998 0
lfingers 7.12502 0 0
lthumb 31.0949 10.4771 0
rclavicle 2.1214e-15 1.74931e-14 0
rhumerus -46.4094 19.9669 -94.4108
rradius 53.2874 0 0
rwrist -26.5026 0 0
rhand -31.4837 -32.2858 0
rfingers 7.12502 0 0
rthumb -4.75019 -62.2114 0
46
root 8.46258 15.7555 -29.965 7.16037 -9.57442 -4.79958
lfemur -41.7086 8.81637 -15.5685
ltibia 37.6681 0 0
lfoot -1.78248 6.66451 0
ltoes -2.1343 0 0
rfemur 20.8082 5.13433 24.3108
rtibia 9.77035 0 0
rfoot 0.78915 0.568067 0
rtoes -24.8118 0 0
lowerback -7.6722 0.86516 1.33608
upperback -1.77689 0.911064 3.76815
thorax 2.42775 0.459225 3.24138
lowerneck -21.2894 -4.42188 -12.6738
upperneck 16.5161 -5.28983 14.5175
head 9.47654 -1.72352 6.47359
lclavicle 3.71867e-15 1.49089e-14 0
lhumerus -44.8021 -4.81245 90.7652
lradius 22.0558 0 0
lwrist -2.53865 0 0
lhand 5.33229 -16.7784 0
lfingers 7.12502 0 0
lthumb 30.6861 10.6752 0
rclavicle 3.71867e-15 1.49089e-14 0
rhumerus -46.5887 19.92 -94.4839
rradius 52.2769 0 0
rwrist -26.1371 0 0
rhand -31.2302 -31.4117 0
rfingers 7.12502 0 0
rthumb -4.50535 -61.3426 0
